# xmcd
#
# Track frame offsets:
#	150
#	23291
#	39116
#	52529
#	81902
#	95621
#	109636
#	125916
#	145877
#	160484
#	175948
#	194298
#	212262
#
# Disc length: 3034 seconds
#
# Revision: 1
# Processed by: cddbd v1.5.2PL0 Copyright (c) Steve Scherf et al.
# Submitted via: EasyCDDAExtractor 6.2.0.3
#
DISCID=9e0bd80d
DTITLE=Snowy White Blues Project - In Our Time Of Living
DYEAR=2009
DGENRE=Blues
TTITLE0=Rolling With My Baby
TTITLE1=Good Morning Blues
TTITLE2=Lonely Man Blues
TTITLE3=In Our Time Of Living
TTITLE4=Blue To The Bone
TTITLE5=Red Wine Blues
TTITLE6=I Ain't No Doctor
TTITLE7=I Still See You
TTITLE8=Hot For The Money
TTITLE9=I'm So Glad
TTITLE10=One Way Ticket
TTITLE11=Simple
TTITLE12=I want To Thank You
EXTD=
EXTT0=
EXTT1=
EXTT2=
EXTT3=
EXTT4=
EXTT5=
EXTT6=
EXTT7=
EXTT8=
EXTT9=
EXTT10=
EXTT11=
EXTT12=
PLAYORDER=
